<svg id="Component_81_21" data-name="Component 81 – 21" xmlns="http://www.w3.org/2000/svg" xmlns:xlink="http://www.w3.org/1999/xlink" width="24" height="24" viewBox="0 0 24 24">
  <defs>
    <clipPath id="clip-path">
      <rect id="Rectangle_165973" data-name="Rectangle 165973" width="11.063" height="10.961" fill="#0071e7"/>
    </clipPath>
  </defs>
  <g id="Ellipse_2631" data-name="Ellipse 2631" fill="#fff" stroke="#e2e2e2" stroke-width="1">
    <circle cx="12" cy="12" r="12" stroke="none"/>
    <circle cx="12" cy="12" r="11.5" fill="none"/>
  </g>
  <g id="Group_512491" data-name="Group 512491" transform="translate(6.468 6.613)">
    <g id="Group_512491-2" data-name="Group 512491" clip-path="url(#clip-path)">
      <path id="Path_223600" data-name="Path 223600" d="M11.063,10.071a2.371,2.371,0,0,1-.164.419,1.018,1.018,0,0,1-1.065.459,1.119,1.119,0,0,1-.687-.351Q7.385,8.826,5.619,7.059a1.3,1.3,0,0,1-.088-.11c-.046.044-.077.072-.106.1l-3.584,3.59A1.176,1.176,0,0,1,.434,10.8a1.029,1.029,0,0,1-.2-1.5c.037-.044.077-.086.118-.126q1.8-1.8,3.592-3.6a.763.763,0,0,1,.1-.073c-.047-.05-.072-.079-.1-.106L.362,1.792A1.046,1.046,0,0,1,1.7.191a1.207,1.207,0,0,1,.155.134L5.408,3.867c.036.036.069.074.112.121.037-.035.068-.063.1-.092Q7.386,2.124,9.155.352A1.042,1.042,0,0,1,10.917.77a.99.99,0,0,1-.259,1.036Q8.887,3.584,7.113,5.358c-.03.03-.066.056-.109.091.041.043.068.074.1.1q1.762,1.756,3.527,3.509a1.424,1.424,0,0,1,.435.728Z" transform="translate(0 -0.001)" fill="#0071e7"/>
    </g>
  </g>
</svg>
