<svg xmlns="http://www.w3.org/2000/svg" xmlns:xlink="http://www.w3.org/1999/xlink" width="32" height="32" viewBox="0 0 32 32">
  <defs>
    <clipPath id="clip-path">
      <rect id="Rectangle_149192" data-name="Rectangle 149192" width="18.318" height="15.979" fill="#8198ac"/>
    </clipPath>
  </defs>
  <g id="Group_509017" data-name="Group 509017" transform="translate(-297 -414)">
    <circle id="Ellipse_2649" data-name="Ellipse 2649" cx="16" cy="16" r="16" transform="translate(297 414)" fill="#f0f0f4"/>
    <g id="Group_508974" data-name="Group 508974" transform="translate(303.842 422.011)">
      <g id="Group_508957" data-name="Group 508957" clip-path="url(#clip-path)">
        <path id="Path_200431" data-name="Path 200431" d="M288.057,161.682a.571.571,0,0,0-.037.077,1.05,1.05,0,0,1-.988.8c-.7.024-1.394.01-2.091.011a.825.825,0,0,1-.139-.027v-.192c0-.923.018-1.847,0-2.77a5.347,5.347,0,0,0-.911-3.069c-.186-.261-.4-.5-.609-.771a1.924,1.924,0,0,1,.945-.469,5.279,5.279,0,0,1,1.937-.01,2.384,2.384,0,0,1,1.864,1.961.655.655,0,0,0,.033.1Z" transform="translate(-269.739 -147.756)" fill="#0171e7"/>
        <path id="Path_200432" data-name="Path 200432" d="M94.956,163.5q-1.618,0-3.237,0a1.371,1.371,0,0,1-.919-.283,1.173,1.173,0,0,1-.464-.911c-.01-1.025-.037-2.051,0-3.074a4.189,4.189,0,0,1,2.434-3.815,4.361,4.361,0,0,1,1.719-.439,7.609,7.609,0,0,1,2.293.127,4.325,4.325,0,0,1,3.157,3.7c.079,1.175.037,2.359.034,3.538a1.4,1.4,0,0,1-.133.476.85.85,0,0,1-.732.58c-.6.058-1.21.1-1.816.115-.78.019-1.562,0-2.342,0V163.5" transform="translate(-86.002 -147.542)" fill="#0171e7"/>
        <path id="Path_200433" data-name="Path 200433" d="M129.634,0a3.111,3.111,0,1,1-3.115,3.11A3.105,3.105,0,0,1,129.634,0" transform="translate(-120.473 -0.001)" fill="#0171e7"/>
        <path id="Path_200434" data-name="Path 200434" d="M3.237,163.127a2,2,0,0,1-.2.02c-.644,0-1.287.006-1.931,0A1.053,1.053,0,0,1,0,162.022q0-1.9,0-3.79a2.4,2.4,0,0,1,2.4-2.45,11.061,11.061,0,0,1,1.494.085,1.74,1.74,0,0,1,.894.455c-.04.047-.075.092-.114.133a4.9,4.9,0,0,0-1.345,2.915c-.07.674-.076,1.355-.093,2.033-.014.565,0,1.131,0,1.726" transform="translate(0.001 -148.335)" fill="#0171e7"/>
        <path id="Path_200435" data-name="Path 200435" d="M20.7,47.908a1.966,1.966,0,1,1-1.96,1.97,1.962,1.962,0,0,1,1.96-1.97" transform="translate(-17.842 -45.618)" fill="#0171e7"/>
        <path id="Path_200436" data-name="Path 200436" d="M284.182,47.908a1.966,1.966,0,1,1-1.959,1.971,1.962,1.962,0,0,1,1.959-1.971" transform="translate(-268.734 -45.618)" fill="#0171e7"/>
      </g>
    </g>
  </g>
</svg>
