<svg xmlns="http://www.w3.org/2000/svg" xmlns:xlink="http://www.w3.org/1999/xlink" width="15" height="15" viewBox="0 0 15 15">
  <defs>
    <clipPath id="clip-path">
      <rect id="Rectangle_165973" data-name="Rectangle 165973" width="6.916" height="6.852" fill="#fff"/>
    </clipPath>
  </defs>
  <g id="Group_508900" data-name="Group 508900" transform="translate(-278.361 -127.361)">
    <circle id="Ellipse_2631" data-name="Ellipse 2631" cx="7.5" cy="7.5" r="7.5" transform="translate(278.361 127.361)" fill="#0071e7"/>
    <g id="Group_512491" data-name="Group 512491" transform="translate(282.32 131.352)">
      <g id="Group_512491-2" data-name="Group 512491" clip-path="url(#clip-path)">
        <path id="Path_223600" data-name="Path 223600" d="M6.915,6.3a1.482,1.482,0,0,1-.1.262.637.637,0,0,1-.666.287.7.7,0,0,1-.429-.22q-1.1-1.107-2.206-2.212a.811.811,0,0,1-.055-.069l-.067.064L1.151,6.652a.735.735,0,0,1-.879.1A.643.643,0,0,1,.15,5.81c.023-.028.048-.053.074-.079L2.468,3.482a.477.477,0,0,1,.064-.045c-.029-.031-.045-.049-.062-.066L.226,1.121a.654.654,0,0,1,.835-1,.754.754,0,0,1,.1.084L3.381,2.418c.022.022.043.046.07.075l.061-.057Q4.617,1.328,5.723.22a.652.652,0,0,1,1.1.261.619.619,0,0,1-.162.648Q5.555,2.24,4.446,3.35c-.019.019-.041.035-.068.057.025.027.043.046.061.064q1.1,1.1,2.2,2.194a.89.89,0,0,1,.272.455Z" transform="translate(0 -0.001)" fill="#fff"/>
      </g>
    </g>
  </g>
</svg>
