<svg id="Group_204365" data-name="Group 204365" xmlns="http://www.w3.org/2000/svg" xmlns:xlink="http://www.w3.org/1999/xlink" width="12.645" height="13.018" viewBox="0 0 12.645 13.018">
  <defs>
    <clipPath id="clip-path">
      <rect id="Rectangle_69612" data-name="Rectangle 69612" width="12.645" height="13.018" fill="#0071e7"/>
    </clipPath>
  </defs>
  <g id="Group_204364" data-name="Group 204364" clip-path="url(#clip-path)">
    <path id="Path_124509" data-name="Path 124509" d="M7.113,0c.239.032.478.057.716.1a6.352,6.352,0,0,1,3.437,1.764,1.252,1.252,0,0,1,.1.122c.05-.048.083-.078.115-.109L12.51.841a.271.271,0,0,1,.311-.08A.282.282,0,0,1,13,1.04c0,.038,0,.076,0,.114V4.168c0,.22,0,.441,0,.661,0,.267-.1.362-.358.362q-1.876,0-3.751,0a.3.3,0,0,1-.322-.173.306.306,0,0,1,.109-.351c.37-.366.738-.736,1.129-1.127a8.519,8.519,0,0,0-.681-.555,4.113,4.113,0,0,0-3.865-.478A4.209,4.209,0,0,0,2.8,4.867c-.02.046-.041.093-.058.141a.3.3,0,0,1-.321.216c-.56,0-1.119,0-1.679,0a.276.276,0,0,1-.292-.386A6.452,6.452,0,0,1,4.7.33,5.694,5.694,0,0,1,6.327.019,1.175,1.175,0,0,0,6.451,0Z" transform="translate(-0.358 0)" fill="#0071e7"/>
    <path id="Path_124510" data-name="Path 124510" d="M1.643,48.2l-1.1,1.1a.782.782,0,0,1-.114.1.267.267,0,0,1-.419-.181A.946.946,0,0,1,0,49.054q0-1.831,0-3.662c0-.309.086-.4.389-.4H4.165a.266.266,0,0,1,.263.164.271.271,0,0,1-.065.315c-.122.124-.245.246-.368.369l-.8.8c.234.192.445.4.685.556a4.1,4.1,0,0,0,3.588.567,4.2,4.2,0,0,0,2.725-2.43c.166-.372.156-.376.57-.376.487,0,.975,0,1.462,0,.287,0,.393.15.316.428a6.435,6.435,0,0,1-1.832,3.039,6.218,6.218,0,0,1-3.166,1.625,6.351,6.351,0,0,1-5.762-1.69,1.557,1.557,0,0,1-.136-.17" transform="translate(0 -37.165)" fill="#0071e7"/>
  </g>
</svg>
