<svg xmlns="http://www.w3.org/2000/svg" xmlns:xlink="http://www.w3.org/1999/xlink" width="41" height="41" viewBox="0 0 41 41">
  <defs>
    <clipPath id="clip-path">
      <rect id="Rectangle_185073" data-name="Rectangle 185073" width="18.126" height="17.425" fill="#fff"/>
    </clipPath>
  </defs>
  <g id="Group_569793" data-name="Group 569793" transform="translate(0)">
    <path id="Path_202112" data-name="Path 202112" d="M497,20.5A20.5,20.5,0,1,1,476.5,0,20.5,20.5,0,0,1,497,20.5" transform="translate(-456)" fill="#0071e7"/>
    <g id="Group_569795" data-name="Group 569795" transform="translate(11.324 10.934)">
      <g id="Group_569795-2" data-name="Group 569795" clip-path="url(#clip-path)">
        <path id="Path_251115" data-name="Path 251115" d="M0,248.813a2.7,2.7,0,0,1,.2-.427,1.036,1.036,0,0,1,.917-.435c.879.006,1.758,0,2.636,0,.6,0,1.191,0,1.787,0a.214.214,0,0,1,.225.145,2.055,2.055,0,0,0,1.919,1.246q1.371.022,2.743,0a2.057,2.057,0,0,0,1.932-1.254.2.2,0,0,1,.212-.137c1.48,0,2.961,0,4.441,0a1.035,1.035,0,0,1,1.11,1.121q0,1.663,0,3.327A1.04,1.04,0,0,1,17,253.524q-7.936,0-15.872,0A1.091,1.091,0,0,1,0,252.671v-3.859m16.73,2.623a.7.7,0,1,0-.7.7.709.709,0,0,0,.7-.7m-4.178,0a.706.706,0,0,0,.7.7.7.7,0,0,0,.005-1.395.7.7,0,0,0-.7.694" transform="translate(0 -236.101)" fill="#fff"/>
        <path id="Path_251116" data-name="Path 251116" d="M80.466,6.271v.24q0,2.274,0,4.549a.713.713,0,0,1-.787.791q-1.3,0-2.6,0a.717.717,0,0,1-.791-.805q0-2.274,0-4.549V6.271h-.207c-.838,0-1.676,0-2.513,0a.686.686,0,0,1-.628-.29A.652.652,0,0,1,73,5.1c.027-.031.057-.06.086-.089q2.365-2.365,4.73-4.731A.787.787,0,0,1,78.295,0a.73.73,0,0,1,.617.244q.941.949,1.889,1.891,1.439,1.439,2.878,2.879a.667.667,0,0,1,.147.947.679.679,0,0,1-.636.308c-.838,0-1.676,0-2.513,0h-.211" transform="translate(-69.313 0)" fill="#fff"/>
      </g>
    </g>
  </g>
</svg>
